<svg width="20" height="20" viewBox="0 0 20 20" fill="none" xmlns="http://www.w3.org/2000/svg">
<path d="M13.1243 17.5C13.1243 17.6658 13.0584 17.8247 12.9412 17.9419C12.824 18.0592 12.6651 18.125 12.4993 18.125H7.49929C7.33353 18.125 7.17456 18.0592 7.05735 17.9419C6.94014 17.8247 6.87429 17.6658 6.87429 17.5C6.87429 17.3342 6.94014 17.1753 7.05735 17.0581C7.17456 16.9408 7.33353 16.875 7.49929 16.875H12.4993C12.6651 16.875 12.824 16.9408 12.9412 17.0581C13.0584 17.1753 13.1243 17.3342 13.1243 17.5ZM17.3313 15C17.2229 15.191 17.0654 15.3497 16.8752 15.4595C16.685 15.5694 16.4689 15.6265 16.2493 15.625H3.74929C3.52955 15.6247 3.31378 15.5665 3.12371 15.4562C2.93364 15.346 2.776 15.1875 2.66667 14.9969C2.55735 14.8063 2.5002 14.5903 2.50098 14.3705C2.50177 14.1508 2.56047 13.9351 2.67117 13.7453C3.10476 12.9984 3.74929 10.8859 3.74929 8.125C3.74929 6.4674 4.40777 4.87769 5.57987 3.70558C6.75198 2.53348 8.34169 1.875 9.99929 1.875C11.6569 1.875 13.2466 2.53348 14.4187 3.70558C15.5908 4.87769 16.2493 6.4674 16.2493 8.125C16.2493 10.8852 16.8946 12.9984 17.3282 13.7453C17.44 13.9354 17.4991 14.1518 17.4995 14.3723C17.5 14.5929 17.4416 14.8095 17.3305 15H17.3313ZM16.2493 14.375C15.6454 13.3383 14.9993 10.9414 14.9993 8.125C14.9993 6.79892 14.4725 5.52715 13.5348 4.58947C12.5971 3.65178 11.3254 3.125 9.99929 3.125C8.67321 3.125 7.40144 3.65178 6.46376 4.58947C5.52607 5.52715 4.99929 6.79892 4.99929 8.125C4.99929 10.9422 4.35242 13.3391 3.74929 14.375H16.2493Z" fill="#94A3B8"/>
</svg>
