<svg width="20" height="20" viewBox="0 0 20 20" fill="none" xmlns="http://www.w3.org/2000/svg">
<path d="M3.3335 4.99984C3.3335 4.5396 3.70659 4.1665 4.16683 4.1665H15.8335C16.2937 4.1665 16.6668 4.5396 16.6668 4.99984C16.6668 5.46007 16.2937 5.83317 15.8335 5.83317H4.16683C3.70659 5.83317 3.3335 5.46007 3.3335 4.99984Z" fill="#334155"/>
<path d="M5.00016 9.99984C5.00016 9.5396 5.37326 9.1665 5.8335 9.1665H14.1668C14.6271 9.1665 15.0002 9.5396 15.0002 9.99984C15.0002 10.4601 14.6271 10.8332 14.1668 10.8332H5.8335C5.37326 10.8332 5.00016 10.4601 5.00016 9.99984Z" fill="#334155"/>
<path d="M7.50016 14.1665C7.03993 14.1665 6.66683 14.5396 6.66683 14.9998C6.66683 15.4601 7.03993 15.8332 7.50016 15.8332H12.5002C12.9604 15.8332 13.3335 15.4601 13.3335 14.9998C13.3335 14.5396 12.9604 14.1665 12.5002 14.1665H7.50016Z" fill="#334155"/>
</svg>
