<svg width="20" height="20" viewBox="0 0 20 20" fill="none" xmlns="http://www.w3.org/2000/svg">
<path d="M13.6979 3.75V3.80208H13.75H16.875C17.0269 3.80208 17.1727 3.86244 17.2801 3.96989C17.3876 4.07733 17.4479 4.22305 17.4479 4.375C17.4479 4.52695 17.3876 4.67267 17.2801 4.78011C17.1727 4.88756 17.0269 4.94792 16.875 4.94792H16.25H16.1979V5V16.25C16.1979 16.5677 16.0717 16.8724 15.8471 17.0971C15.6224 17.3217 15.3177 17.4479 15 17.4479H5C4.68229 17.4479 4.3776 17.3217 4.15294 17.0971C3.92829 16.8724 3.80208 16.5677 3.80208 16.25V5V4.94792H3.75H3.125C2.97305 4.94792 2.82733 4.88756 2.71989 4.78011C2.61244 4.67267 2.55208 4.52695 2.55208 4.375C2.55208 4.22305 2.61244 4.07733 2.71989 3.96989C2.82733 3.86244 2.97305 3.80208 3.125 3.80208H6.25H6.30208V3.75V3.125C6.30208 2.64153 6.49414 2.17787 6.836 1.836C7.17787 1.49414 7.64153 1.30208 8.125 1.30208H11.875C12.3585 1.30208 12.8221 1.49414 13.164 1.836C13.5059 2.17787 13.6979 2.64153 13.6979 3.125V3.75ZM12.5 3.80208H12.5521V3.75V3.125C12.5521 2.94543 12.4807 2.77321 12.3538 2.64623C12.2268 2.51925 12.0546 2.44792 11.875 2.44792H8.125C7.94543 2.44792 7.77321 2.51925 7.64623 2.64623C7.51925 2.77321 7.44792 2.94543 7.44792 3.125V3.75V3.80208H7.5H12.5ZM15 16.3021H15.0521V16.25V5V4.94792H15H5H4.94792V5V16.25V16.3021H5H15ZM8.69792 8.125V13.125C8.69792 13.2769 8.63756 13.4227 8.53011 13.5301C8.42267 13.6376 8.27695 13.6979 8.125 13.6979C7.97305 13.6979 7.82733 13.6376 7.71989 13.5301C7.61244 13.4227 7.55208 13.2769 7.55208 13.125V8.125C7.55208 7.97305 7.61244 7.82733 7.71989 7.71989C7.82733 7.61244 7.97305 7.55208 8.125 7.55208C8.27695 7.55208 8.42267 7.61244 8.53011 7.71989C8.63756 7.82733 8.69792 7.97305 8.69792 8.125ZM12.4479 8.125V13.125C12.4479 13.2769 12.3876 13.4227 12.2801 13.5301C12.1727 13.6376 12.0269 13.6979 11.875 13.6979C11.7231 13.6979 11.5773 13.6376 11.4699 13.5301C11.3624 13.4227 11.3021 13.2769 11.3021 13.125V8.125C11.3021 7.97305 11.3624 7.82733 11.4699 7.71989C11.5773 7.61244 11.7231 7.55208 11.875 7.55208C12.0269 7.55208 12.1727 7.61244 12.2801 7.71989C12.3876 7.82733 12.4479 7.97305 12.4479 8.125Z" fill="#D42620" stroke="white" stroke-width="0.104167"/>
</svg>
