<svg width="20" height="20" viewBox="0 0 20 20" fill="none" xmlns="http://www.w3.org/2000/svg">
<path d="M10 16.9271H10.0001C11.8366 16.925 13.5973 16.1945 14.8959 14.8959C16.1945 13.5973 16.925 11.8366 16.9271 10.0001V10C16.9271 8.62995 16.5208 7.29067 15.7597 6.15152C14.9985 5.01237 13.9166 4.1245 12.6509 3.60021C11.3851 3.07591 9.99232 2.93874 8.6486 3.20602C7.30487 3.4733 6.07059 4.13304 5.10182 5.10181C4.13305 6.07058 3.47331 7.30487 3.20602 8.64859C2.93874 9.99232 3.07592 11.3851 3.60021 12.6509C4.12451 13.9166 5.01237 14.9985 6.15152 15.7597C7.29067 16.5208 8.62996 16.9271 10 16.9271ZM10.625 10.5729H10.5729V10.625V13.125C10.5729 13.2769 10.5126 13.4227 10.4051 13.5301C10.2977 13.6376 10.1519 13.6979 10 13.6979C9.84806 13.6979 9.70233 13.6376 9.59489 13.5301C9.48745 13.4227 9.42709 13.2769 9.42709 13.125V10.625V10.5729H9.375H6.875C6.72306 10.5729 6.57733 10.5126 6.46989 10.4051C6.36245 10.2977 6.30209 10.1519 6.30209 10C6.30209 9.84805 6.36245 9.70233 6.46989 9.59489C6.57733 9.48744 6.72306 9.42708 6.875 9.42708H9.375H9.42709V9.375V6.875C9.42709 6.72305 9.48745 6.57733 9.59489 6.46989C9.70233 6.36244 9.84806 6.30208 10 6.30208C10.1519 6.30208 10.2977 6.36244 10.4051 6.46989C10.5126 6.57733 10.5729 6.72305 10.5729 6.875V9.375V9.42708H10.625H13.125C13.2769 9.42708 13.4227 9.48744 13.5301 9.59489C13.6376 9.70233 13.6979 9.84805 13.6979 10C13.6979 10.1519 13.6376 10.2977 13.5301 10.4051C13.4227 10.5126 13.2769 10.5729 13.125 10.5729H10.625ZM5.51493 3.28762C6.84251 2.40056 8.40331 1.92709 9.99998 1.92708C12.1404 1.92935 14.1924 2.78062 15.7059 4.2941C17.2194 5.80758 18.0707 7.85966 18.0729 10.0001C18.0729 11.5967 17.5994 13.1575 16.7124 14.4851C15.8253 15.8127 14.5645 16.8474 13.0894 17.4584C11.6142 18.0694 9.99105 18.2293 8.42506 17.9178C6.85906 17.6063 5.42061 16.8374 4.29159 15.7084C3.16257 14.5794 2.3937 13.1409 2.08221 11.5749C1.77071 10.009 1.93058 8.38576 2.5416 6.91063C3.15262 5.4355 4.18735 4.17468 5.51493 3.28762Z" fill="white" stroke="white" stroke-width="0.104167"/>
</svg>
