<svg width="12" height="16" viewBox="0 0 12 16" fill="none" xmlns="http://www.w3.org/2000/svg">
<path d="M6.42259 0.244078C6.26631 0.0877974 6.05435 0 5.83333 0C5.61232 0 5.40036 0.0877974 5.24408 0.244078L0.244078 5.24408C-0.0813592 5.56952 -0.0813592 6.09715 0.244078 6.42259C0.569515 6.74803 1.09715 6.74803 1.42259 6.42259L5.83333 2.01184L10.2441 6.42259C10.5695 6.74803 11.0972 6.74803 11.4226 6.42259C11.748 6.09715 11.748 5.56952 11.4226 5.24408L6.42259 0.244078Z" fill="#94A3B8"/>
<path d="M6.42259 15.5893C6.26631 15.7455 6.05435 15.8333 5.83333 15.8333C5.61232 15.8333 5.40036 15.7455 5.24408 15.5893L0.244078 10.5893C-0.0813592 10.2638 -0.0813592 9.73618 0.244078 9.41074C0.569515 9.08531 1.09715 9.08531 1.42259 9.41074L5.83333 13.8215L10.2441 9.41074C10.5695 9.08531 11.0972 9.08531 11.4226 9.41074C11.748 9.73618 11.748 10.2638 11.4226 10.5893L6.42259 15.5893Z" fill="#94A3B8"/>
</svg>
