<svg width="27" height="27" viewBox="0 0 27 27" fill="none" xmlns="http://www.w3.org/2000/svg">
<path d="M21.989 20.1982C22.2268 20.436 22.3603 20.7585 22.3603 21.0947C22.3603 21.431 22.2268 21.7534 21.989 21.9912C21.7512 22.229 21.4288 22.3625 21.0925 22.3625C20.7563 22.3625 20.4338 22.229 20.196 21.9912L13.4998 15.2929L6.80151 21.9891C6.56375 22.2269 6.24127 22.3604 5.90503 22.3604C5.56878 22.3604 5.24631 22.2269 5.00854 21.9891C4.77078 21.7513 4.63721 21.4289 4.63721 21.0926C4.63721 20.7564 4.77078 20.4339 5.00854 20.1961L11.7069 13.4999L5.01065 6.80159C4.77289 6.56383 4.63932 6.24135 4.63932 5.90511C4.63932 5.56886 4.77289 5.24638 5.01065 5.00862C5.24841 4.77086 5.57089 4.63728 5.90714 4.63728C6.24338 4.63728 6.56586 4.77086 6.80362 5.00862L13.4998 11.7069L20.1982 5.00757C20.4359 4.7698 20.7584 4.63623 21.0946 4.63623C21.4309 4.63623 21.7534 4.7698 21.9911 5.00757C22.2289 5.24533 22.3625 5.5678 22.3625 5.90405C22.3625 6.2403 22.2289 6.56277 21.9911 6.80054L15.2928 13.4999L21.989 20.1982Z" fill="#676E7E"/>
</svg>
