<svg width="20" height="20" viewBox="0 0 20 20" fill="none" xmlns="http://www.w3.org/2000/svg">
<path d="M12.4997 3.125C11.2229 3.12598 9.97154 3.48214 8.88557 4.15364C7.79961 4.82514 6.92186 5.78551 6.35049 6.92734C5.67077 6.82821 4.97791 6.8702 4.31514 7.05069C3.65237 7.23117 3.03389 7.54629 2.49829 7.97638C1.96269 8.40647 1.52145 8.94231 1.20211 9.55047C0.882757 10.1586 0.692146 10.8261 0.642162 11.5112C0.592178 12.1963 0.683892 12.8843 0.911586 13.5324C1.13928 14.1804 1.49807 14.7747 1.96557 15.2779C2.43307 15.7812 2.99926 16.1828 3.62882 16.4575C4.25837 16.7323 4.9378 16.8744 5.62471 16.875H12.4997C14.3231 16.875 16.0718 16.1507 17.3611 14.8614C18.6504 13.572 19.3747 11.8234 19.3747 10C19.3747 8.17664 18.6504 6.42795 17.3611 5.13864C16.0718 3.84933 14.3231 3.125 12.4997 3.125ZM12.4997 15.625H5.62471C4.63015 15.625 3.67632 15.2299 2.97306 14.5267C2.2698 13.8234 1.87471 12.8696 1.87471 11.875C1.87471 10.8804 2.2698 9.92661 2.97306 9.22335C3.67632 8.52009 4.63015 8.125 5.62471 8.125C5.71064 8.125 5.79658 8.125 5.88174 8.13359C5.71082 8.74099 5.62433 9.36902 5.62471 10C5.62471 10.1658 5.69056 10.3247 5.80777 10.4419C5.92498 10.5592 6.08395 10.625 6.24971 10.625C6.41547 10.625 6.57444 10.5592 6.69165 10.4419C6.80886 10.3247 6.87471 10.1658 6.87471 10C6.87471 8.88748 7.20461 7.79994 7.82269 6.87492C8.44077 5.94989 9.31928 5.22892 10.3471 4.80318C11.3749 4.37743 12.5059 4.26604 13.5971 4.48308C14.6882 4.70012 15.6905 5.23585 16.4772 6.02252C17.2639 6.80919 17.7996 7.81147 18.0166 8.90262C18.2337 9.99376 18.1223 11.1248 17.6965 12.1526C17.2708 13.1804 16.5498 14.0589 15.6248 14.677C14.6998 15.2951 13.6122 15.625 12.4997 15.625Z" fill="#94A3B8"/>
</svg>
