<svg width="20" height="20" viewBox="0 0 20 20" fill="none" xmlns="http://www.w3.org/2000/svg">
<path d="M18.0411 16.5627C16.8513 14.5056 15.0177 13.0306 12.8779 12.3314C13.9363 11.7013 14.7587 10.7412 15.2187 9.59845C15.6786 8.45573 15.7508 7.19361 15.424 6.00592C15.0972 4.81823 14.3896 3.77064 13.4099 3.02402C12.4301 2.2774 11.2323 1.87305 10.0005 1.87305C8.7687 1.87305 7.57093 2.2774 6.59116 3.02402C5.61139 3.77064 4.90379 4.81823 4.57703 6.00592C4.25027 7.19361 4.32241 8.45573 4.78238 9.59845C5.24235 10.7412 6.06471 11.7013 7.12317 12.3314C4.98333 13.0299 3.14974 14.5049 1.95989 16.5627C1.91626 16.6338 1.88732 16.713 1.87477 16.7955C1.86223 16.878 1.86634 16.9622 1.88686 17.0431C1.90739 17.124 1.9439 17.2 1.99426 17.2665C2.04462 17.3331 2.1078 17.3889 2.18007 17.4306C2.25234 17.4724 2.33224 17.4992 2.41505 17.5096C2.49787 17.5199 2.58192 17.5136 2.66225 17.491C2.74258 17.4683 2.81756 17.4298 2.88277 17.3777C2.94798 17.3256 3.0021 17.261 3.04192 17.1877C4.5138 14.6439 7.11536 13.1252 10.0005 13.1252C12.8857 13.1252 15.4872 14.6439 16.9591 17.1877C16.9989 17.261 17.0531 17.3256 17.1183 17.3777C17.1835 17.4298 17.2584 17.4683 17.3388 17.491C17.4191 17.5136 17.5032 17.5199 17.586 17.5096C17.6688 17.4992 17.7487 17.4724 17.821 17.4306C17.8932 17.3889 17.9564 17.3331 18.0068 17.2665C18.0571 17.2 18.0936 17.124 18.1142 17.0431C18.1347 16.9622 18.1388 16.878 18.1263 16.7955C18.1137 16.713 18.0848 16.6338 18.0411 16.5627ZM5.62552 7.50017C5.62552 6.63488 5.88211 5.78902 6.36284 5.06955C6.84357 4.35009 7.52685 3.78933 8.32628 3.4582C9.1257 3.12707 10.0054 3.04043 10.854 3.20924C11.7027 3.37805 12.4823 3.79473 13.0941 4.40658C13.706 5.01843 14.1226 5.79799 14.2915 6.64665C14.4603 7.49532 14.3736 8.37499 14.0425 9.17441C13.7114 9.97384 13.1506 10.6571 12.4311 11.1379C11.7117 11.6186 10.8658 11.8752 10.0005 11.8752C8.84058 11.8739 7.7285 11.4126 6.9083 10.5924C6.08809 9.77219 5.62676 8.66011 5.62552 7.50017Z" fill="#94A3B8"/>
</svg>
