<svg width="20" height="20" viewBox="0 0 20 20" fill="none" xmlns="http://www.w3.org/2000/svg">
<path d="M9.77935 12.2606C10.5646 11.6006 11.1278 10.7151 11.3926 9.72413C11.6575 8.73317 11.6111 7.68474 11.2599 6.72101C10.9087 5.75728 10.2695 4.9249 9.42918 4.33674C8.58882 3.74858 7.5879 3.43311 6.56217 3.43311C5.53643 3.43311 4.53551 3.74858 3.69515 4.33674C2.85479 4.9249 2.21566 5.75728 1.86443 6.72101C1.5132 7.68474 1.46686 8.73317 1.73171 9.72413C1.99656 10.7151 2.55978 11.6006 3.34498 12.2606C2.11887 12.815 1.05632 13.676 0.25982 14.7606C0.112708 14.9611 0.0512562 15.2118 0.0889832 15.4575C0.12671 15.7033 0.260526 15.924 0.460992 16.0711C0.661459 16.2183 0.912155 16.2797 1.15793 16.242C1.40371 16.2043 1.62443 16.0704 1.77154 15.87C2.3229 15.117 3.04401 14.5045 3.87636 14.0823C4.70872 13.6602 5.62887 13.4402 6.56217 13.4402C7.49546 13.4402 8.41561 13.6602 9.24797 14.0823C10.0803 14.5045 10.8014 15.117 11.3528 15.87C11.4999 16.0705 11.7207 16.2045 11.9665 16.2423C12.2124 16.2801 12.4632 16.2186 12.6637 16.0715C12.8643 15.9244 12.9982 15.7037 13.036 15.4578C13.0738 15.212 13.0124 14.9612 12.8653 14.7606C12.0683 13.6762 11.0056 12.8152 9.77935 12.2606ZM3.43716 8.43716C3.43716 7.81909 3.62044 7.21491 3.96382 6.701C4.3072 6.1871 4.79526 5.78656 5.36628 5.55004C5.9373 5.31351 6.56563 5.25163 7.17182 5.37221C7.77801 5.49279 8.33483 5.79041 8.77187 6.22745C9.20891 6.66449 9.50654 7.22131 9.62712 7.8275C9.7477 8.43369 9.68581 9.06203 9.44929 9.63305C9.21277 10.2041 8.81223 10.6921 8.29832 11.0355C7.78442 11.3789 7.18023 11.5622 6.56217 11.5622C5.73336 11.5622 4.93851 11.2329 4.35246 10.6469C3.7664 10.0608 3.43716 9.26596 3.43716 8.43716ZM19.5387 16.0676C19.4395 16.1406 19.3268 16.1932 19.2072 16.2226C19.0876 16.252 18.9634 16.2575 18.8417 16.2389C18.7199 16.2202 18.603 16.1778 18.4977 16.1139C18.3924 16.0501 18.3007 15.9661 18.2278 15.8668C17.6751 15.1153 16.9537 14.5039 16.1216 14.0819C15.2896 13.6599 14.3701 13.4391 13.4372 13.4372C13.1885 13.4372 12.9501 13.3384 12.7743 13.1626C12.5984 12.9868 12.4997 12.7483 12.4997 12.4997C12.4997 12.251 12.5984 12.0126 12.7743 11.8367C12.9501 11.6609 13.1885 11.5622 13.4372 11.5622C13.8973 11.5616 14.3516 11.4595 14.7677 11.263C15.1838 11.0666 15.5514 10.7807 15.8442 10.4257C16.1369 10.0708 16.3478 9.65556 16.4615 9.20972C16.5753 8.76387 16.5891 8.29841 16.5022 7.84657C16.4152 7.39474 16.2296 6.96768 15.9585 6.59591C15.6873 6.22413 15.3375 5.91681 14.9339 5.6959C14.5302 5.47498 14.0828 5.34593 13.6235 5.31795C13.1643 5.28997 12.7045 5.36375 12.277 5.53404C12.1625 5.58092 12.0399 5.60468 11.9161 5.60393C11.7924 5.60319 11.67 5.57796 11.5561 5.5297C11.4422 5.48144 11.3389 5.4111 11.2523 5.32275C11.1657 5.23439 11.0974 5.12976 11.0514 5.0149C11.0054 4.90003 10.9826 4.77719 10.9844 4.65348C10.9861 4.52976 11.0123 4.4076 11.0614 4.29405C11.1106 4.1805 11.1817 4.0778 11.2707 3.99188C11.3598 3.90595 11.4649 3.8385 11.5801 3.79341C12.6835 3.35165 13.9082 3.31737 15.0345 3.69673C16.1609 4.07609 17.1152 4.84427 17.7265 5.86353C18.3378 6.88279 18.5661 8.08648 18.3703 9.25877C18.1745 10.4311 17.5676 11.4953 16.6583 12.2606C17.8844 12.815 18.9469 13.676 19.7434 14.7606C19.8891 14.9612 19.9493 15.2114 19.9109 15.4564C19.8726 15.7013 19.7387 15.9211 19.5387 16.0676Z" fill="#0D6EFD"/>
</svg>
